<mxfile host="app.diagrams.net" agent="Mozilla/5.0 (Windows NT 10.0; Win64; x64) AppleWebKit/537.36 (KHTML, like Gecko) Chrome/141.0.0.0 Safari/537.36" version="28.2.8">
  <diagram name="Page-1" id="ZGw6WwbpmBr4HGPOoWfA">
    <mxGraphModel dx="1674" dy="914" grid="1" gridSize="10" guides="1" tooltips="1" connect="1" arrows="1" fold="1" page="1" pageScale="1" pageWidth="850" pageHeight="1100" math="0" shadow="0">
      <root>
        <mxCell id="0" />
        <mxCell id="1" parent="0" />
        <mxCell id="z5jzKdm0otkhCUFOz11k-105" style="edgeStyle=orthogonalEdgeStyle;rounded=0;orthogonalLoop=1;jettySize=auto;html=1;exitX=0.5;exitY=1;exitDx=0;exitDy=0;entryX=0.5;entryY=0;entryDx=0;entryDy=0;" edge="1" parent="1" source="z5jzKdm0otkhCUFOz11k-9" target="z5jzKdm0otkhCUFOz11k-13">
          <mxGeometry relative="1" as="geometry" />
        </mxCell>
        <mxCell id="z5jzKdm0otkhCUFOz11k-9" value="Start&lt;div&gt;&lt;br&gt;&lt;/div&gt;&lt;div&gt;&lt;br&gt;&lt;div&gt;&lt;br&gt;&lt;/div&gt;&lt;/div&gt;" style="ellipse;html=1;shape=startState;fillColor=#000000;strokeColor=#ff0000;" vertex="1" parent="1">
          <mxGeometry x="82.5" y="50" width="30" height="30" as="geometry" />
        </mxCell>
        <mxCell id="z5jzKdm0otkhCUFOz11k-143" style="edgeStyle=orthogonalEdgeStyle;rounded=0;orthogonalLoop=1;jettySize=auto;html=1;exitX=0.5;exitY=1;exitDx=0;exitDy=0;entryX=0.5;entryY=0;entryDx=0;entryDy=0;" edge="1" parent="1" source="z5jzKdm0otkhCUFOz11k-13" target="z5jzKdm0otkhCUFOz11k-64">
          <mxGeometry relative="1" as="geometry" />
        </mxCell>
        <mxCell id="z5jzKdm0otkhCUFOz11k-13" value="Student browses available courses" style="rounded=1;whiteSpace=wrap;html=1;arcSize=40;fillColor=#fad9d5;strokeColor=#ae4132;" vertex="1" parent="1">
          <mxGeometry x="37.5" y="110" width="120" height="50" as="geometry" />
        </mxCell>
        <mxCell id="z5jzKdm0otkhCUFOz11k-145" value="Yes" style="edgeStyle=orthogonalEdgeStyle;rounded=0;orthogonalLoop=1;jettySize=auto;html=1;exitX=1;exitY=0.5;exitDx=0;exitDy=0;entryX=0.5;entryY=0;entryDx=0;entryDy=0;" edge="1" parent="1" source="z5jzKdm0otkhCUFOz11k-15" target="z5jzKdm0otkhCUFOz11k-31">
          <mxGeometry relative="1" as="geometry" />
        </mxCell>
        <mxCell id="z5jzKdm0otkhCUFOz11k-174" value="No" style="edgeStyle=orthogonalEdgeStyle;rounded=0;orthogonalLoop=1;jettySize=auto;html=1;exitX=0.5;exitY=0;exitDx=0;exitDy=0;entryX=0.5;entryY=0;entryDx=0;entryDy=0;" edge="1" parent="1" source="z5jzKdm0otkhCUFOz11k-15" target="z5jzKdm0otkhCUFOz11k-151">
          <mxGeometry relative="1" as="geometry" />
        </mxCell>
        <mxCell id="z5jzKdm0otkhCUFOz11k-15" value="Did the student click &quot;Enroll&quot;?" style="rhombus;whiteSpace=wrap;html=1;fillColor=#fff2cc;strokeColor=#d6b656;direction=south;" vertex="1" parent="1">
          <mxGeometry x="45" y="290" width="105" height="60" as="geometry" />
        </mxCell>
        <mxCell id="z5jzKdm0otkhCUFOz11k-23" style="edgeStyle=orthogonalEdgeStyle;rounded=0;orthogonalLoop=1;jettySize=auto;html=1;exitX=0.5;exitY=1;exitDx=0;exitDy=0;" edge="1" parent="1">
          <mxGeometry relative="1" as="geometry">
            <mxPoint x="380" y="310.0000000000002" as="sourcePoint" />
            <mxPoint x="380" y="310.0000000000002" as="targetPoint" />
          </mxGeometry>
        </mxCell>
        <mxCell id="z5jzKdm0otkhCUFOz11k-148" value="Yes" style="edgeStyle=orthogonalEdgeStyle;rounded=0;orthogonalLoop=1;jettySize=auto;html=1;exitX=1;exitY=0.5;exitDx=0;exitDy=0;entryX=0.5;entryY=0;entryDx=0;entryDy=0;" edge="1" parent="1" source="z5jzKdm0otkhCUFOz11k-26" target="z5jzKdm0otkhCUFOz11k-74">
          <mxGeometry relative="1" as="geometry" />
        </mxCell>
        <mxCell id="z5jzKdm0otkhCUFOz11k-176" value="No" style="edgeStyle=orthogonalEdgeStyle;rounded=0;orthogonalLoop=1;jettySize=auto;html=1;exitX=0.5;exitY=0;exitDx=0;exitDy=0;" edge="1" parent="1" source="z5jzKdm0otkhCUFOz11k-26" target="z5jzKdm0otkhCUFOz11k-177">
          <mxGeometry relative="1" as="geometry">
            <mxPoint x="410" y="510" as="targetPoint" />
          </mxGeometry>
        </mxCell>
        <mxCell id="z5jzKdm0otkhCUFOz11k-26" value="&lt;div&gt;Is enrollment valid?&lt;/div&gt;" style="rhombus;whiteSpace=wrap;html=1;fillColor=#fff2cc;strokeColor=#d6b656;direction=south;" vertex="1" parent="1">
          <mxGeometry x="45" y="480" width="105" height="55" as="geometry" />
        </mxCell>
        <mxCell id="z5jzKdm0otkhCUFOz11k-147" style="edgeStyle=orthogonalEdgeStyle;rounded=0;orthogonalLoop=1;jettySize=auto;html=1;exitX=0.5;exitY=1;exitDx=0;exitDy=0;entryX=0;entryY=0.5;entryDx=0;entryDy=0;" edge="1" parent="1" source="z5jzKdm0otkhCUFOz11k-31" target="z5jzKdm0otkhCUFOz11k-26">
          <mxGeometry relative="1" as="geometry" />
        </mxCell>
        <mxCell id="z5jzKdm0otkhCUFOz11k-31" value="System validates course availability" style="rounded=1;whiteSpace=wrap;html=1;arcSize=40;fillColor=#fad9d5;strokeColor=#ae4132;" vertex="1" parent="1">
          <mxGeometry x="37.5" y="390" width="120" height="50" as="geometry" />
        </mxCell>
        <mxCell id="z5jzKdm0otkhCUFOz11k-36" value="Update student&#39;s profile (add course)" style="rounded=1;whiteSpace=wrap;html=1;arcSize=40;fillColor=#fad9d5;strokeColor=#ae4132;" vertex="1" parent="1">
          <mxGeometry x="420" y="700" width="120" height="40" as="geometry" />
        </mxCell>
        <mxCell id="z5jzKdm0otkhCUFOz11k-43" style="edgeStyle=orthogonalEdgeStyle;rounded=0;orthogonalLoop=1;jettySize=auto;html=1;exitX=1;exitY=0.5;exitDx=0;exitDy=0;" edge="1" parent="1" source="z5jzKdm0otkhCUFOz11k-15" target="z5jzKdm0otkhCUFOz11k-15">
          <mxGeometry relative="1" as="geometry" />
        </mxCell>
        <mxCell id="z5jzKdm0otkhCUFOz11k-48" value="&amp;nbsp;Send notification to student and instructor" style="rounded=1;whiteSpace=wrap;html=1;arcSize=40;fillColor=#fad9d5;strokeColor=#ae4132;" vertex="1" parent="1">
          <mxGeometry x="420" y="765" width="120" height="40" as="geometry" />
        </mxCell>
        <mxCell id="z5jzKdm0otkhCUFOz11k-144" style="edgeStyle=orthogonalEdgeStyle;rounded=0;orthogonalLoop=1;jettySize=auto;html=1;exitX=0.5;exitY=1;exitDx=0;exitDy=0;entryX=0;entryY=0.5;entryDx=0;entryDy=0;" edge="1" parent="1" source="z5jzKdm0otkhCUFOz11k-64" target="z5jzKdm0otkhCUFOz11k-15">
          <mxGeometry relative="1" as="geometry" />
        </mxCell>
        <mxCell id="z5jzKdm0otkhCUFOz11k-64" value="Display selected course details" style="rounded=1;whiteSpace=wrap;html=1;arcSize=40;fillColor=#fad9d5;strokeColor=#ae4132;" vertex="1" parent="1">
          <mxGeometry x="37.5" y="200" width="120" height="50" as="geometry" />
        </mxCell>
        <mxCell id="z5jzKdm0otkhCUFOz11k-150" style="edgeStyle=orthogonalEdgeStyle;rounded=0;orthogonalLoop=1;jettySize=auto;html=1;exitX=0.5;exitY=1;exitDx=0;exitDy=0;entryX=0;entryY=0.5;entryDx=0;entryDy=0;" edge="1" parent="1" source="z5jzKdm0otkhCUFOz11k-74" target="z5jzKdm0otkhCUFOz11k-77">
          <mxGeometry relative="1" as="geometry" />
        </mxCell>
        <mxCell id="z5jzKdm0otkhCUFOz11k-74" value="Save enrollment request" style="rounded=1;whiteSpace=wrap;html=1;arcSize=40;fillColor=#fad9d5;strokeColor=#ae4132;" vertex="1" parent="1">
          <mxGeometry x="37.5" y="607.5" width="120" height="42.5" as="geometry" />
        </mxCell>
        <mxCell id="z5jzKdm0otkhCUFOz11k-164" value="Yes" style="edgeStyle=orthogonalEdgeStyle;rounded=0;orthogonalLoop=1;jettySize=auto;html=1;exitX=0.5;exitY=0;exitDx=0;exitDy=0;entryX=0;entryY=0.5;entryDx=0;entryDy=0;" edge="1" parent="1" source="z5jzKdm0otkhCUFOz11k-77" target="z5jzKdm0otkhCUFOz11k-81">
          <mxGeometry relative="1" as="geometry" />
        </mxCell>
        <mxCell id="z5jzKdm0otkhCUFOz11k-166" value="No" style="edgeStyle=orthogonalEdgeStyle;rounded=0;orthogonalLoop=1;jettySize=auto;html=1;exitX=1;exitY=0.5;exitDx=0;exitDy=0;entryX=0.5;entryY=0;entryDx=0;entryDy=0;" edge="1" parent="1" source="z5jzKdm0otkhCUFOz11k-77" target="z5jzKdm0otkhCUFOz11k-160">
          <mxGeometry relative="1" as="geometry" />
        </mxCell>
        <mxCell id="z5jzKdm0otkhCUFOz11k-77" value="Was enrollment saved successfully?" style="rhombus;whiteSpace=wrap;html=1;direction=south;fillColor=#fff2cc;strokeColor=#d6b656;" vertex="1" parent="1">
          <mxGeometry x="48.75" y="760" width="97.5" height="50" as="geometry" />
        </mxCell>
        <mxCell id="z5jzKdm0otkhCUFOz11k-81" value="Create enrollment record in database." style="rounded=1;whiteSpace=wrap;html=1;arcSize=40;fillColor=#fad9d5;strokeColor=#ae4132;" vertex="1" parent="1">
          <mxGeometry x="220" y="765" width="120" height="40" as="geometry" />
        </mxCell>
        <mxCell id="z5jzKdm0otkhCUFOz11k-94" value="" style="shape=line;html=1;strokeWidth=6;strokeColor=#005700;direction=south;fillColor=#008a00;fontColor=#ffffff;" vertex="1" parent="1">
          <mxGeometry x="380" y="650" width="10" height="245" as="geometry" />
        </mxCell>
        <mxCell id="z5jzKdm0otkhCUFOz11k-112" style="edgeStyle=orthogonalEdgeStyle;rounded=0;orthogonalLoop=1;jettySize=auto;html=1;exitX=0.75;exitY=0.5;exitDx=0;exitDy=0;exitPerimeter=0;fillColor=#008a00;strokeColor=#005700;" edge="1" parent="1">
          <mxGeometry relative="1" as="geometry">
            <mxPoint x="420" y="849.41" as="targetPoint" />
            <mxPoint x="385" y="849.8199999999999" as="sourcePoint" />
          </mxGeometry>
        </mxCell>
        <mxCell id="z5jzKdm0otkhCUFOz11k-113" value="Update analytics" style="rounded=1;whiteSpace=wrap;html=1;arcSize=40;fillColor=#fad9d5;strokeColor=#ae4132;" vertex="1" parent="1">
          <mxGeometry x="420" y="830" width="120" height="40" as="geometry" />
        </mxCell>
        <mxCell id="z5jzKdm0otkhCUFOz11k-114" value="" style="shape=line;html=1;strokeWidth=6;strokeColor=#005700;direction=south;fillColor=#008a00;fontColor=#ffffff;" vertex="1" parent="1">
          <mxGeometry x="580" y="650" width="10" height="245" as="geometry" />
        </mxCell>
        <mxCell id="z5jzKdm0otkhCUFOz11k-173" style="edgeStyle=orthogonalEdgeStyle;rounded=0;orthogonalLoop=1;jettySize=auto;html=1;exitX=1;exitY=0.5;exitDx=0;exitDy=0;entryX=0;entryY=0.5;entryDx=0;entryDy=0;" edge="1" parent="1" source="z5jzKdm0otkhCUFOz11k-124" target="z5jzKdm0otkhCUFOz11k-151">
          <mxGeometry relative="1" as="geometry" />
        </mxCell>
        <mxCell id="z5jzKdm0otkhCUFOz11k-124" value="Show enrollment confirmation" style="rounded=1;whiteSpace=wrap;html=1;arcSize=40;fillColor=#fad9d5;strokeColor=#ae4132;" vertex="1" parent="1">
          <mxGeometry x="640" y="764.9999999999998" width="120" height="40" as="geometry" />
        </mxCell>
        <mxCell id="z5jzKdm0otkhCUFOz11k-136" style="edgeStyle=orthogonalEdgeStyle;rounded=0;orthogonalLoop=1;jettySize=auto;html=1;exitX=0.75;exitY=0.5;exitDx=0;exitDy=0;exitPerimeter=0;fillColor=#008a00;strokeColor=#005700;" edge="1" parent="1">
          <mxGeometry relative="1" as="geometry">
            <mxPoint x="420" y="784.41" as="targetPoint" />
            <mxPoint x="385" y="784.8199999999999" as="sourcePoint" />
            <Array as="points">
              <mxPoint x="400" y="785" />
              <mxPoint x="400" y="785" />
            </Array>
          </mxGeometry>
        </mxCell>
        <mxCell id="z5jzKdm0otkhCUFOz11k-137" style="edgeStyle=orthogonalEdgeStyle;rounded=0;orthogonalLoop=1;jettySize=auto;html=1;exitX=0.75;exitY=0.5;exitDx=0;exitDy=0;exitPerimeter=0;fillColor=#008a00;strokeColor=#005700;" edge="1" parent="1">
          <mxGeometry relative="1" as="geometry">
            <mxPoint x="420" y="719.41" as="targetPoint" />
            <mxPoint x="385" y="719.8199999999999" as="sourcePoint" />
            <Array as="points">
              <mxPoint x="385" y="719" />
              <mxPoint x="385" y="719" />
            </Array>
          </mxGeometry>
        </mxCell>
        <mxCell id="z5jzKdm0otkhCUFOz11k-151" value="End" style="ellipse;html=1;shape=endState;fillColor=#000000;strokeColor=#ff0000;" vertex="1" parent="1">
          <mxGeometry x="800" y="770" width="30" height="30" as="geometry" />
        </mxCell>
        <mxCell id="z5jzKdm0otkhCUFOz11k-154" style="edgeStyle=orthogonalEdgeStyle;rounded=0;orthogonalLoop=1;jettySize=auto;html=1;exitX=0.517;exitY=0.753;exitDx=0;exitDy=0;exitPerimeter=0;fillColor=#008a00;strokeColor=#005700;" edge="1" parent="1">
          <mxGeometry relative="1" as="geometry">
            <mxPoint x="579.9999999999998" y="783.3050000000001" as="sourcePoint" />
            <mxPoint x="637.53" y="786.0500000000001" as="targetPoint" />
            <Array as="points">
              <mxPoint x="579.53" y="786.6400000000001" />
              <mxPoint x="607.53" y="786.6400000000001" />
            </Array>
          </mxGeometry>
        </mxCell>
        <mxCell id="z5jzKdm0otkhCUFOz11k-157" style="edgeStyle=orthogonalEdgeStyle;rounded=0;orthogonalLoop=1;jettySize=auto;html=1;exitX=1;exitY=0.5;exitDx=0;exitDy=0;entryX=0.819;entryY=0.518;entryDx=0;entryDy=0;entryPerimeter=0;fillColor=#008a00;strokeColor=#005700;" edge="1" parent="1" source="z5jzKdm0otkhCUFOz11k-113" target="z5jzKdm0otkhCUFOz11k-114">
          <mxGeometry relative="1" as="geometry" />
        </mxCell>
        <mxCell id="z5jzKdm0otkhCUFOz11k-167" style="edgeStyle=orthogonalEdgeStyle;rounded=0;orthogonalLoop=1;jettySize=auto;html=1;exitX=1;exitY=0.5;exitDx=0;exitDy=0;entryX=0.5;entryY=1;entryDx=0;entryDy=0;" edge="1" parent="1" source="z5jzKdm0otkhCUFOz11k-160" target="z5jzKdm0otkhCUFOz11k-151">
          <mxGeometry relative="1" as="geometry">
            <mxPoint x="820" y="830" as="targetPoint" />
          </mxGeometry>
        </mxCell>
        <mxCell id="z5jzKdm0otkhCUFOz11k-160" value="Show error message" style="rounded=1;whiteSpace=wrap;html=1;arcSize=40;fillColor=#fad9d5;strokeColor=#ae4132;" vertex="1" parent="1">
          <mxGeometry x="37.5" y="920" width="120" height="40" as="geometry" />
        </mxCell>
        <mxCell id="z5jzKdm0otkhCUFOz11k-163" style="edgeStyle=orthogonalEdgeStyle;rounded=0;orthogonalLoop=1;jettySize=auto;html=1;exitX=1;exitY=0.5;exitDx=0;exitDy=0;entryX=0.555;entryY=0.635;entryDx=0;entryDy=0;entryPerimeter=0;" edge="1" parent="1" source="z5jzKdm0otkhCUFOz11k-81" target="z5jzKdm0otkhCUFOz11k-94">
          <mxGeometry relative="1" as="geometry" />
        </mxCell>
        <mxCell id="z5jzKdm0otkhCUFOz11k-171" style="edgeStyle=orthogonalEdgeStyle;rounded=0;orthogonalLoop=1;jettySize=auto;html=1;exitX=1;exitY=0.5;exitDx=0;exitDy=0;entryX=0.555;entryY=0.4;entryDx=0;entryDy=0;entryPerimeter=0;" edge="1" parent="1" source="z5jzKdm0otkhCUFOz11k-48" target="z5jzKdm0otkhCUFOz11k-114">
          <mxGeometry relative="1" as="geometry" />
        </mxCell>
        <mxCell id="z5jzKdm0otkhCUFOz11k-172" style="edgeStyle=orthogonalEdgeStyle;rounded=0;orthogonalLoop=1;jettySize=auto;html=1;exitX=1;exitY=0.5;exitDx=0;exitDy=0;entryX=0.286;entryY=0.518;entryDx=0;entryDy=0;entryPerimeter=0;fillColor=#008a00;strokeColor=#005700;" edge="1" parent="1" source="z5jzKdm0otkhCUFOz11k-36" target="z5jzKdm0otkhCUFOz11k-114">
          <mxGeometry relative="1" as="geometry" />
        </mxCell>
        <mxCell id="z5jzKdm0otkhCUFOz11k-178" style="edgeStyle=orthogonalEdgeStyle;rounded=0;orthogonalLoop=1;jettySize=auto;html=1;exitX=1;exitY=0.5;exitDx=0;exitDy=0;entryX=0.5;entryY=0;entryDx=0;entryDy=0;" edge="1" parent="1" source="z5jzKdm0otkhCUFOz11k-177" target="z5jzKdm0otkhCUFOz11k-151">
          <mxGeometry relative="1" as="geometry" />
        </mxCell>
        <mxCell id="z5jzKdm0otkhCUFOz11k-177" value="Show error message" style="rounded=1;whiteSpace=wrap;html=1;arcSize=40;fillColor=#fad9d5;strokeColor=#ae4132;" vertex="1" parent="1">
          <mxGeometry x="420" y="487.4999999999998" width="120" height="40" as="geometry" />
        </mxCell>
      </root>
    </mxGraphModel>
  </diagram>
</mxfile>
